<svg id="visual" viewBox="0 0 900 600" width="900" height="600" xmlns="http://www.w3.org/2000/svg" xmlns:xlink="http://www.w3.org/1999/xlink" version="1.1"><path d="M431 600L737 600L737 545L701 545L701 491L710 491L710 436L629 436L629 382L503 382L503 327L503 327L503 273L701 273L701 218L656 218L656 164L746 164L746 109L719 109L719 55L656 55L656 0L900 0L900 55L900 55L900 109L900 109L900 164L900 164L900 218L900 218L900 273L900 273L900 327L900 327L900 382L900 382L900 436L900 436L900 491L900 491L900 545L900 545L900 600L900 600Z" fill="#fa7268"></path><path d="M278 600L404 600L404 545L476 545L476 491L458 491L458 436L350 436L350 382L368 382L368 327L323 327L323 273L458 273L458 218L467 218L467 164L386 164L386 109L467 109L467 55L422 55L422 0L657 0L657 55L720 55L720 109L747 109L747 164L657 164L657 218L702 218L702 273L504 273L504 327L504 327L504 382L630 382L630 436L711 436L711 491L702 491L702 545L738 545L738 600L432 600Z" fill="#ea5e66"></path><path d="M152 600L251 600L251 545L251 545L251 491L224 491L224 436L278 436L278 382L269 382L269 327L224 327L224 273L251 273L251 218L224 218L224 164L134 164L134 109L314 109L314 55L188 55L188 0L423 0L423 55L468 55L468 109L387 109L387 164L468 164L468 218L459 218L459 273L324 273L324 327L369 327L369 382L351 382L351 436L459 436L459 491L477 491L477 545L405 545L405 600L279 600Z" fill="#d84a64"></path><path d="M53 600L53 600L53 545L71 545L71 491L62 491L62 436L125 436L125 382L107 382L107 327L116 327L116 273L134 273L134 218L134 218L134 164L53 164L53 109L134 109L134 55L89 55L89 0L189 0L189 55L315 55L315 109L135 109L135 164L225 164L225 218L252 218L252 273L225 273L225 327L270 327L270 382L279 382L279 436L225 436L225 491L252 491L252 545L252 545L252 600L153 600Z" fill="#c53762"></path><path d="M0 600L0 600L0 545L0 545L0 491L0 491L0 436L0 436L0 382L0 382L0 327L0 327L0 273L0 273L0 218L0 218L0 164L0 164L0 109L0 109L0 55L0 55L0 0L90 0L90 55L135 55L135 109L54 109L54 164L135 164L135 218L135 218L135 273L117 273L117 327L108 327L108 382L126 382L126 436L63 436L63 491L72 491L72 545L54 545L54 600L54 600Z" fill="#b0235f"></path></svg>